<svg t="1623123456789" class="icon" viewBox="0 0 1024 1024" version="1.1" xmlns="http://www.w3.org/2000/svg" p-id="7890" width="200" height="200">
<path d="M512 64c123.712 0 224 100.288 224 224 0 123.712-100.288 224-224 224s-224-100.288-224-224c0-123.712 100.288-224 224-224z m0 64c-88.224 0-160 71.776-160 160s71.776 160 160 160 160-71.776 160-160-71.776-160-160-160z m0 64c52.928 0 96 43.072 96 96s-43.072 96-96 96-96-43.072-96-96 43.072-96 96-96z m339.2 454.4c17.664 0 32 14.336 32 32v288c0 17.664-14.336 32-32 32h-678.4c-17.664 0-32-14.336-32-32v-288c0-17.664 14.336-32 32-32h678.4z m-32 64h-614.4v224h614.4v-224z m-256 64v96h-128v-96h128z" p-id="7891"></path>
</svg>