<svg t="1623123456789" class="icon" viewBox="0 0 1024 1024" version="1.1" xmlns="http://www.w3.org/2000/svg" p-id="6789" width="200" height="200">
<path d="M512 64c247.424 0 448 200.576 448 448S759.424 960 512 960 64 759.424 64 512 264.576 64 512 64z m0 64C299.904 128 128 299.904 128 512s171.904 384 384 384 384-171.904 384-384S724.096 128 512 128z m128 256c35.328 0 64 28.672 64 64v128c0 35.328-28.672 64-64 64H384c-35.328 0-64-28.672-64-64V448c0-35.328 28.672-64 64-64h256z m0 64H384v128h256V448z" p-id="6790"></path>
</svg>