<svg t="1623123456789" class="icon" viewBox="0 0 1024 1024" version="1.1" xmlns="http://www.w3.org/2000/svg" p-id="4567" width="200" height="200">
<path d="M832 128c52.928 0 96 43.072 96 96v576c0 52.928-43.072 96-96 96H192c-52.928 0-96-43.072-96-96V224c0-52.928 43.072-96 96-96h640z m0 64H192c-17.664 0-32 14.336-32 32v576c0 17.664 14.336 32 32 32h640c17.664 0 32-14.336 32-32V224c0-17.664-14.336-32-32-32z m-96 128v384H288V320h448z m-64 64H352v256h320V384z m-192 64h128v64H480v-64z m-128 128h256v64H352v-64z" p-id="4568"></path>
</svg>