<svg t="1623123456789" class="icon" viewBox="0 0 1024 1024" version="1.1" xmlns="http://www.w3.org/2000/svg" p-id="3456" width="200" height="200">
<path d="M128 192h768c35.328 0 64 28.672 64 64v384c0 35.328-28.672 64-64 64H576v64h128c17.664 0 32 14.336 32 32s-14.336 32-32 32H320c-17.664 0-32-14.336-32-32s14.336-32 32-32h128v-64H128c-35.328 0-64-28.672-64-64V256c0-35.328 28.672-64 64-64z m768 64H128v384h768V256z m-128 96c17.664 0 32 14.336 32 32v128c0 17.664-14.336 32-32 32s-32-14.336-32-32V384c0-17.664 14.336-32 32-32z m-160 64c17.664 0 32 14.336 32 32v64c0 17.664-14.336 32-32 32s-32-14.336-32-32v-64c0-17.664 14.336-32 32-32z m-160-32c17.664 0 32 14.336 32 32v96c0 17.664-14.336 32-32 32s-32-14.336-32-32v-96c0-17.664 14.336-32 32-32z m-160 32c17.664 0 32 14.336 32 32v32c0 17.664-14.336 32-32 32s-32-14.336-32-32v-32c0-17.664 14.336-32 32-32z" p-id="3457"></path>
</svg>